<?xml version="1.0" encoding="UTF-8"?>
<svg id="Livello_2" data-name="Livello 2" xmlns="http://www.w3.org/2000/svg" viewBox="0 0 521.12 121.75">
  <defs>
    <style>
      .cls-1 {
        fill: #fff;
      }

      .cls-2 {
        fill: #0032ff;
      }

      .cls-3 {
        fill: #ff6900;
      }
    </style>
  </defs>
  <g id="Livello_1-2" data-name="Livello 1">
    <g>
      <polygon class="cls-2" points="0 88.8 28.53 105.27 57.06 121.75 57.06 88.8 57.06 55.86 28.53 72.33 0 88.8"/>
      <polygon class="cls-3" points="76.05 32.94 47.52 16.47 18.99 0 18.99 32.94 18.99 65.88 47.52 49.41 76.05 32.94"/>
      <g>
        <path class="cls-1" d="M125.99,70.48c.03,5.66-4.83,9.74-11.65,9.84-4.93.07-9.55-1.8-13.32-4.86l3.88-4.41c2.61,2.25,6.01,3.72,8.92,3.68,3.04-.05,5.37-1.8,5.34-4.22-.03-2.8-1.42-3.97-5.74-5.18-7.64-1.99-11.17-4.94-11.17-10.45s4.69-9.51,11.33-9.62c4.13-.07,8.56,1.62,11.41,4.35l-3.76,3.88c-1.96-1.66-4.71-2.71-7.06-2.69-3.11.04-5.28,1.76-5.28,4.06s1.52,3.69,5.68,4.73c7.7,1.83,11.4,5.26,11.43,10.88h0Z"/>
        <path class="cls-1" d="M147.4,80.36c-10.92,0-18.36-7.91-18.36-17.58s7.43-17.55,18.36-17.55c5.79,0,11,1.62,16.87,7.8l-4.79,3.7c-4.4-4.6-7.9-5.62-11.61-5.62-7.02,0-11.82,5.16-11.82,11.6s4.8,11.63,11.82,11.63c3.77,0,7.26-1.08,11.86-5.9l4.86,3.85c-6.01,6.39-11.35,8.08-17.19,8.08h0Z"/>
        <path class="cls-1" d="M185.1,80.24c-11.5,0-18.81-7.87-18.81-17.45s7.35-17.48,18.85-17.48,18.8,7.99,18.8,17.48-7.34,17.45-18.84,17.45ZM185.14,51.18c-7.21,0-11.85,5.25-11.85,11.53s4.64,11.61,11.81,11.61,11.9-5.21,11.9-11.61-4.58-11.53-11.86-11.53Z"/>
        <path class="cls-1" d="M215.29,64.47v15.33h-6.85v-33.98h6.85l-.17,6.76c1.74-4.13,5.88-7.88,13.05-7.23v6.26c-9.11-.76-12.88,4.99-12.88,12.87Z"/>
        <path class="cls-1" d="M231.12,62.74c0-10,7.59-17.51,18.32-17.51,11.51,0,19.32,8.39,18.33,19.99l-29.56-.04c.4,5.52,5.33,9.52,11.57,9.52,4.08,0,7.63-1.11,11.02-4.85l5.36,3.2c-3.97,4.78-9.57,7.31-16.38,7.31-11.24,0-18.66-7.59-18.66-17.62ZM260.99,60.06c-.52-5.66-5-9.37-11.44-9.37s-10.88,3.87-11.35,9.37h22.8Z"/>
        <path class="cls-1" d="M291.26,80.36c-10.92,0-18.36-7.91-18.36-17.58s7.43-17.55,18.36-17.55c5.79,0,11,1.62,16.87,7.8l-4.79,3.7c-4.4-4.6-7.9-5.62-11.61-5.62-7.02,0-11.82,5.16-11.82,11.6s4.8,11.63,11.82,11.63c3.77,0,7.26-1.08,11.86-5.9l4.86,3.85c-6.01,6.39-11.35,8.08-17.19,8.08h0Z"/>
        <path class="cls-1" d="M329.78,80.24c-11.5,0-18.81-7.87-18.81-17.45s7.35-17.48,18.85-17.48,18.8,7.99,18.8,17.48-7.34,17.45-18.84,17.45ZM329.82,51.18c-7.21,0-11.85,5.25-11.85,11.53s4.64,11.61,11.81,11.61,11.9-5.21,11.9-11.61-4.58-11.53-11.86-11.53Z"/>
        <path class="cls-1" d="M414.67,44.25h-6.78s0,24.48,0,24.73l-27.49-25.13s.03,21.09.06,25.15l-27.5-25.15v35.03h6.82s0-20.39,0-20.7l27.45,25.04s0-20.99-.02-25.05l27.46,25.05v-38.97Z"/>
        <path class="cls-1" d="M419.37,62.74c0-10,7.59-17.51,18.32-17.51,11.51,0,19.32,8.39,18.33,19.99l-29.56-.04c.4,5.52,5.33,9.52,11.57,9.52,4.08,0,7.63-1.11,11.02-4.85l5.36,3.2c-3.97,4.78-9.57,7.31-16.38,7.31-11.24,0-18.66-7.59-18.66-17.62ZM449.25,60.06c-.52-5.66-5-9.37-11.44-9.37s-10.88,3.87-11.35,9.37h22.8Z"/>
        <path class="cls-1" d="M477.54,80.36c-10.92,0-18.36-7.91-18.36-17.58s7.43-17.55,18.36-17.55c5.79,0,11,1.62,16.87,7.8l-4.79,3.7c-4.4-4.6-7.9-5.62-11.61-5.62-7.02,0-11.82,5.16-11.82,11.6s4.8,11.63,11.82,11.63c3.77,0,7.26-1.08,11.86-5.9l4.86,3.85c-6.01,6.39-11.35,8.08-17.19,8.08h0Z"/>
        <path class="cls-1" d="M521.12,79.99c-12.73,1.43-18.54-3.2-18.54-15.94v-12.41h-4.91v-5.84h4.91v-5.94l6.86-3v8.93h11.68v5.84h-11.68v12.41c0,7.78,2.71,10.7,11.68,9.71v6.23h0Z"/>
      </g>
    </g>
  </g>
</svg>