<?xml version="1.0" encoding="UTF-8"?>
<svg id="Livello_2" data-name="Livello 2" xmlns="http://www.w3.org/2000/svg" viewBox="0 0 236.53 55.26">
  <defs>
    <style>
      .cls-1 {
        fill: #fff;
      }
    </style>
  </defs>
  <g id="Livello_1-2" data-name="Livello 1">
    <g>
      <polygon class="cls-1" points="0 40.31 12.95 47.78 25.9 55.26 25.9 40.31 25.9 25.36 12.95 32.83 0 40.31"/>
      <polygon class="cls-1" points="34.52 14.95 21.57 7.48 8.62 0 8.62 14.95 8.62 29.9 21.57 22.43 34.52 14.95"/>
      <g>
        <path class="cls-1" d="M57.19,31.99c.01,2.57-2.19,4.42-5.29,4.46-2.24.03-4.33-.82-6.05-2.21l1.76-2c1.18,1.02,2.73,1.69,4.05,1.67,1.38-.02,2.44-.82,2.42-1.91-.02-1.27-.64-1.8-2.6-2.35-3.47-.9-5.07-2.24-5.07-4.75s2.13-4.32,5.14-4.37c1.87-.03,3.89.74,5.18,1.98l-1.71,1.76c-.89-.75-2.14-1.23-3.21-1.22-1.41.02-2.39.8-2.39,1.84s.69,1.67,2.58,2.15c3.5.83,5.18,2.39,5.19,4.94h0Z"/>
        <path class="cls-1" d="M66.9,36.47c-4.96,0-8.33-3.59-8.33-7.98s3.37-7.97,8.33-7.97c2.63,0,4.99.74,7.66,3.54l-2.18,1.68c-2-2.09-3.59-2.55-5.27-2.55-3.19,0-5.37,2.34-5.37,5.26s2.18,5.28,5.37,5.28c1.71,0,3.3-.49,5.38-2.68l2.21,1.75c-2.73,2.9-5.15,3.67-7.8,3.67h0Z"/>
        <path class="cls-1" d="M84.02,36.42c-5.22,0-8.54-3.57-8.54-7.92s3.34-7.93,8.56-7.93,8.53,3.63,8.53,7.93-3.33,7.92-8.55,7.92ZM84.04,23.23c-3.27,0-5.38,2.39-5.38,5.23s2.11,5.27,5.36,5.27,5.4-2.37,5.4-5.27-2.08-5.23-5.39-5.23Z"/>
        <path class="cls-1" d="M97.72,29.26v6.96h-3.11v-15.43h3.11l-.08,3.07c.79-1.87,2.67-3.58,5.92-3.28v2.84c-4.14-.34-5.84,2.27-5.84,5.84Z"/>
        <path class="cls-1" d="M104.9,28.48c0-4.54,3.44-7.95,8.31-7.95,5.22,0,8.77,3.81,8.32,9.07l-13.42-.02c.18,2.51,2.42,4.32,5.25,4.32,1.85,0,3.47-.5,5-2.2l2.43,1.45c-1.8,2.17-4.34,3.32-7.43,3.32-5.1,0-8.47-3.44-8.47-8ZM118.47,27.26c-.23-2.57-2.27-4.25-5.19-4.25s-4.94,1.75-5.15,4.25h10.35Z"/>
        <path class="cls-1" d="M132.2,36.47c-4.96,0-8.33-3.59-8.33-7.98s3.37-7.97,8.33-7.97c2.63,0,4.99.74,7.66,3.54l-2.18,1.68c-2-2.09-3.59-2.55-5.27-2.55-3.19,0-5.37,2.34-5.37,5.26s2.18,5.28,5.37,5.28c1.71,0,3.3-.49,5.38-2.68l2.21,1.75c-2.73,2.9-5.15,3.67-7.8,3.67h0Z"/>
        <path class="cls-1" d="M149.69,36.42c-5.22,0-8.54-3.57-8.54-7.92s3.34-7.93,8.56-7.93,8.53,3.63,8.53,7.93-3.33,7.92-8.55,7.92ZM149.71,23.23c-3.27,0-5.38,2.39-5.38,5.23s2.11,5.27,5.36,5.27,5.4-2.37,5.4-5.27-2.08-5.23-5.39-5.23Z"/>
        <path class="cls-1" d="M188.22,20.09h-3.08s0,11.11,0,11.23l-12.48-11.41s.02,9.57.03,11.42l-12.48-11.42v15.9h3.09s0-9.26,0-9.39l12.46,11.36s0-9.53,0-11.37l12.47,11.37v-17.69Z"/>
        <path class="cls-1" d="M190.35,28.48c0-4.54,3.44-7.95,8.31-7.95,5.22,0,8.77,3.81,8.32,9.07l-13.42-.02c.18,2.51,2.42,4.32,5.25,4.32,1.85,0,3.47-.5,5-2.2l2.43,1.45c-1.8,2.17-4.34,3.32-7.43,3.32-5.1,0-8.47-3.44-8.47-8ZM203.91,27.26c-.23-2.57-2.27-4.25-5.19-4.25s-4.94,1.75-5.15,4.25h10.35Z"/>
        <path class="cls-1" d="M216.75,36.47c-4.96,0-8.33-3.59-8.33-7.98s3.37-7.97,8.33-7.97c2.63,0,4.99.74,7.66,3.54l-2.18,1.68c-2-2.09-3.59-2.55-5.27-2.55-3.19,0-5.37,2.34-5.37,5.26s2.18,5.28,5.37,5.28c1.71,0,3.3-.49,5.38-2.68l2.21,1.75c-2.73,2.9-5.15,3.67-7.8,3.67h0Z"/>
        <path class="cls-1" d="M236.53,36.31c-5.78.65-8.41-1.45-8.41-7.23v-5.63h-2.23v-2.65h2.23v-2.69l3.11-1.36v4.05h5.3v2.65h-5.3v5.63c0,3.53,1.23,4.86,5.3,4.41v2.83h0Z"/>
      </g>
    </g>
  </g>
</svg>