<?xml version="1.0" encoding="UTF-8"?>
<svg id="Livello_2" data-name="Livello 2" xmlns="http://www.w3.org/2000/svg" xmlns:xlink="http://www.w3.org/1999/xlink" viewBox="0 0 69.29 69.29">
  <defs>
    <style>
      .cls-1 {
        fill: #fff;
      }

      .cls-2 {
        fill: url(#Sfumatura_senza_nome_79-4);
      }

      .cls-3 {
        fill: url(#Sfumatura_senza_nome_79);
      }

      .cls-4 {
        fill: url(#Sfumatura_senza_nome_79-2);
      }

      .cls-5 {
        fill: url(#Sfumatura_senza_nome_79-3);
      }
    </style>
    <linearGradient id="Sfumatura_senza_nome_79" data-name="Sfumatura senza nome 79" x1="-291.83" y1="58.23" x2="446.28" y2="5.57" gradientUnits="userSpaceOnUse">
      <stop offset="0" stop-color="#ff6900"/>
      <stop offset=".75" stop-color="#6b09d9"/>
      <stop offset="1" stop-color="#0032ff"/>
    </linearGradient>
    <linearGradient id="Sfumatura_senza_nome_79-2" data-name="Sfumatura senza nome 79" x1="-291.19" y1="58.21" x2="446.92" y2="5.56" xlink:href="#Sfumatura_senza_nome_79"/>
    <linearGradient id="Sfumatura_senza_nome_79-3" data-name="Sfumatura senza nome 79" x1="-290.41" y1="69.16" x2="447.7" y2="16.51" xlink:href="#Sfumatura_senza_nome_79"/>
    <linearGradient id="Sfumatura_senza_nome_79-4" data-name="Sfumatura senza nome 79" x1="-291.19" y1="58.21" x2="446.92" y2="5.56" xlink:href="#Sfumatura_senza_nome_79"/>
  </defs>
  <g id="Livello_1-2" data-name="Livello 1">
    <g>
      <rect class="cls-1" width="69.29" height="69.29" rx="8" ry="8"/>
      <g>
        <path class="cls-3" d="M53.92,32.12h-1.45c-.34-4.8-4.35-8.61-9.24-8.61h-8.23v-6.9c0-.55-.45-1-1-1s-1,.45-1,1v6.9h-7.01c-4.89,0-8.9,3.81-9.24,8.61h-1.38c-1.8,0-3.27,1.47-3.27,3.27v6.4c0,1.8,1.47,3.27,3.27,3.27h1.38c.34,4.8,4.35,8.61,9.24,8.61h17.24c4.89,0,8.9-3.81,9.24-8.61h1.45c1.8,0,3.27-1.47,3.27-3.27v-6.4c0-1.8-1.47-3.27-3.27-3.27ZM14.1,41.79v-6.4c0-.7.57-1.27,1.27-1.27h1.35v8.94h-1.35c-.7,0-1.27-.57-1.27-1.27ZM50.5,44.41c0,4.01-3.26,7.27-7.27,7.27h-17.24c-4.01,0-7.27-3.26-7.27-7.27v-11.62c0-4.01,3.26-7.27,7.27-7.27h17.24c4.01,0,7.27,3.26,7.27,7.27v11.62ZM55.19,41.79c0,.7-.57,1.27-1.27,1.27h-1.41v-8.94h1.41c.7,0,1.27.57,1.27,1.27v6.4Z"/>
        <path class="cls-4" d="M34.65,27.73c-3.99,0-7.24,3.25-7.24,7.24s3.25,7.24,7.24,7.24,7.24-3.25,7.24-7.24-3.25-7.24-7.24-7.24ZM34.65,40.21c-2.89,0-5.24-2.35-5.24-5.24s2.35-5.24,5.24-5.24,5.24,2.35,5.24,5.24-2.35,5.24-5.24,5.24Z"/>
        <path class="cls-5" d="M37.28,43.75c-.55,0-1,.45-1,1,0,.9-.73,1.63-1.63,1.63s-1.63-.73-1.63-1.63c0-.55-.45-1-1-1s-1,.45-1,1c0,2,1.63,3.63,3.63,3.63s3.63-1.63,3.63-3.63c0-.55-.45-1-1-1Z"/>
        <path class="cls-2" d="M34.65,32.24c-1.5,0-2.73,1.22-2.73,2.73s1.22,2.73,2.73,2.73,2.73-1.22,2.73-2.73-1.22-2.73-2.73-2.73ZM34.65,35.69c-.4,0-.73-.33-.73-.73s.33-.73.73-.73.73.33.73.73-.33.73-.73.73Z"/>
      </g>
    </g>
  </g>
</svg>