<?xml version="1.0" encoding="UTF-8"?>
<svg id="Livello_2" data-name="Livello 2" xmlns="http://www.w3.org/2000/svg" xmlns:xlink="http://www.w3.org/1999/xlink" viewBox="0 0 69.29 69.29">
  <defs>
    <style>
      .cls-1 {
        fill: #fff;
      }

      .cls-2 {
        fill: url(#Sfumatura_senza_nome_79-4);
      }

      .cls-3 {
        fill: url(#Sfumatura_senza_nome_79);
      }

      .cls-4 {
        fill: url(#Sfumatura_senza_nome_79-2);
      }

      .cls-5 {
        fill: url(#Sfumatura_senza_nome_79-3);
      }
    </style>
    <linearGradient id="Sfumatura_senza_nome_79" data-name="Sfumatura senza nome 79" x1="-382.75" y1="65.44" x2="355.36" y2="12.78" gradientUnits="userSpaceOnUse">
      <stop offset="0" stop-color="#ff6900"/>
      <stop offset=".75" stop-color="#6b09d9"/>
      <stop offset="1" stop-color="#0032ff"/>
    </linearGradient>
    <linearGradient id="Sfumatura_senza_nome_79-2" data-name="Sfumatura senza nome 79" x1="-382.63" y1="67.08" x2="355.48" y2="14.42" xlink:href="#Sfumatura_senza_nome_79"/>
    <linearGradient id="Sfumatura_senza_nome_79-3" data-name="Sfumatura senza nome 79" x1="-382.69" y1="66.28" x2="355.42" y2="13.62" xlink:href="#Sfumatura_senza_nome_79"/>
    <linearGradient id="Sfumatura_senza_nome_79-4" data-name="Sfumatura senza nome 79" x1="-382.82" y1="64.46" x2="355.29" y2="11.8" xlink:href="#Sfumatura_senza_nome_79"/>
  </defs>
  <g id="Livello_1-2" data-name="Livello 1">
    <g>
      <rect class="cls-1" width="69.29" height="69.29" rx="8" ry="8"/>
      <g>
        <path class="cls-3" d="M21.4,36.17h-.76l1.47-3.52c.1-.24.07-.5-.07-.72-.14-.21-.38-.34-.63-.34h-5.34c-.42,0-.76.34-.76.76s.34.76.76.76h4.2l-1.27,3.05h-2.16c-.42,0-.76.34-.76.76s.34.76.76.76h1.53l-1.47,3.52c-.16.39.02.84.41,1,.1.04.2.06.29.06.3,0,.58-.18.7-.47l1.71-4.11h1.4c.42,0,.76-.34.76-.76s-.34-.76-.76-.76Z"/>
        <path class="cls-4" d="M39.18,33.12h4.19l-1.27,3.05h-2.16c-.42,0-.76.34-.76.76s.34.76.76.76h1.53l-1.47,3.52c-.16.39.02.84.41,1,.1.04.2.06.29.06.3,0,.58-.18.7-.47l1.71-4.11h1.4c.42,0,.76-.34.76-.76,0-.42-.34-.76-.76-.76h-.76l1.47-3.52c.1-.24.07-.5-.07-.72-.14-.21-.38-.34-.63-.34h-5.34c-.42,0-.76.34-.76.76s.34.76.76.76Z"/>
        <path class="cls-5" d="M33.17,36.17h-.76l1.47-3.52c.1-.24.07-.5-.07-.72-.14-.21-.38-.34-.63-.34h-5.34c-.42,0-.76.34-.76.76s.34.76.76.76h4.2l-1.27,3.05h-2.16c-.42,0-.76.34-.76.76s.34.76.76.76h1.53l-1.47,3.52c-.16.39.02.84.41,1,.1.04.2.06.29.06.3,0,.58-.18.7-.47l1.71-4.11h1.4c.42,0,.76-.34.76-.76s-.34-.76-.76-.76Z"/>
        <path class="cls-2" d="M53,16.34c-2.1,0-3.81,1.71-3.81,3.81,0,1.84,1.27,3.39,3.01,3.74,0,.03-.06.05-.06.08v17.54h-3.81v-12.97c0-2.93-1.92-5.66-5.41-7.67-2.71-1.57-6.03-2.57-9.85-2.89v-1.64c0-1.68-1.37-3.05-3.05-3.05s-3.05,1.37-3.05,3.05v1.72c-3.24.39-6.56,1.35-9.08,2.81-3.49,2.01-5.41,4.74-5.41,7.67v16.78c0,.42.44.76.86.76h2.19v3.05c0,.42.44.76.86.76h2.19v3.05c0,1.68,1.46,3.05,3.15,3.05h18.31c1.68,0,2.96-1.37,2.96-3.05v-3.05h1.62c.42,0,.67-.34.67-.76v-3.05h2.38c.42,0,.67-.34.67-.76v-2.29h4.67c.42,0,.67-.34.67-.76v-18.31s.04-.05.04-.08c1.74-.35,3.11-1.89,3.11-3.74,0-2.1-1.71-3.81-3.81-3.81ZM28.5,16.34c0-.84.68-1.53,1.53-1.53s1.53.68,1.53,1.53v1.53h-3.05v-1.53ZM16.39,44.56h-2.38v-15.25h9.92v15.25h-7.53ZM41.46,52.95c0,.84-.59,1.53-1.43,1.53h-18.31c-.84,0-1.62-.68-1.62-1.53v-3.05h21.36v3.05ZM43.75,48.38h-26.7v-2.29h26.7v2.29ZM25.45,44.56v-15.25h9.92v15.25h-9.92ZM46.8,44.56h-9.92v-15.25h9.92v15.25ZM36.22,27.78H14.16c.32-2.08,1.91-4.04,4.58-5.59,3.13-1.81,7.3-2.8,11.75-2.8s8.63,1,11.75,2.8c2.67,1.54,4.27,3.5,4.58,5.59h-10.62ZM53,22.44c-1.26,0-2.29-1.03-2.29-2.29s1.03-2.29,2.29-2.29,2.29,1.03,2.29,2.29-1.03,2.29-2.29,2.29Z"/>
      </g>
    </g>
  </g>
</svg>