<?xml version="1.0" encoding="UTF-8"?>
<svg id="Livello_2" data-name="Livello 2" xmlns="http://www.w3.org/2000/svg" xmlns:xlink="http://www.w3.org/1999/xlink" viewBox="0 0 69.29 69.29">
  <defs>
    <style>
      .cls-1 {
        fill: #fff;
      }

      .cls-2 {
        fill: url(#Sfumatura_senza_nome_79);
      }

      .cls-3 {
        fill: url(#Sfumatura_senza_nome_79-2);
      }
    </style>
    <linearGradient id="Sfumatura_senza_nome_79" data-name="Sfumatura senza nome 79" x1="-473.78" y1="64.5" x2="264.32" y2="11.84" gradientUnits="userSpaceOnUse">
      <stop offset="0" stop-color="#ff6900"/>
      <stop offset=".75" stop-color="#6b09d9"/>
      <stop offset="1" stop-color="#0032ff"/>
    </linearGradient>
    <linearGradient id="Sfumatura_senza_nome_79-2" data-name="Sfumatura senza nome 79" x1="-472.87" y1="77.28" x2="265.24" y2="24.62" xlink:href="#Sfumatura_senza_nome_79"/>
  </defs>
  <g id="Livello_1-2" data-name="Livello 1">
    <g>
      <rect class="cls-1" width="69.29" height="69.29" rx="8" ry="8"/>
      <g>
        <path class="cls-2" d="M41.15,17.95c-2.72,0-5.29,1.06-7.21,2.99l-2.6,2.6c-3.98,3.98-3.98,10.45,0,14.42.2.2.45.29.71.29s.51-.1.71-.29c.39-.39.39-1.02,0-1.41-3.2-3.2-3.2-8.4,0-11.59l2.6-2.6c1.55-1.55,3.61-2.4,5.8-2.4s4.25.85,5.8,2.4,2.4,3.61,2.4,5.8-.85,4.25-2.4,5.8l-.65.65c-.39.39-.39,1.02,0,1.41s1.02.39,1.41,0l.65-.65c3.98-3.98,3.98-10.44,0-14.42-1.93-1.93-4.49-2.99-7.21-2.99Z"/>
        <path class="cls-3" d="M36.54,31.34c-.39.39-.39,1.02,0,1.41,3.2,3.2,3.2,8.4,0,11.59l-2.6,2.6c-1.55,1.55-3.61,2.4-5.8,2.4s-4.25-.85-5.8-2.4c-3.2-3.2-3.2-8.4,0-11.59l.65-.65c.39-.39.39-1.02,0-1.41-.39-.39-1.02-.39-1.42,0l-.65.65c-3.98,3.98-3.98,10.45,0,14.42,1.93,1.93,4.49,2.99,7.21,2.99s5.28-1.06,7.21-2.99l2.6-2.6c3.98-3.98,3.98-10.44,0-14.42-.39-.39-1.02-.39-1.41,0Z"/>
      </g>
    </g>
  </g>
</svg>