<?xml version="1.0" encoding="UTF-8"?>
<svg id="Livello_2" data-name="Livello 2" xmlns="http://www.w3.org/2000/svg" xmlns:xlink="http://www.w3.org/1999/xlink" viewBox="0 0 69.29 69.29">
  <defs>
    <style>
      .cls-1 {
        fill: #fff;
      }

      .cls-2 {
        fill: url(#Sfumatura_senza_nome_79);
      }

      .cls-3 {
        fill: url(#Sfumatura_senza_nome_79-2);
      }
    </style>
    <linearGradient id="Sfumatura_senza_nome_79" data-name="Sfumatura senza nome 79" x1="-654.49" y1="100.78" x2="83.62" y2="48.13" gradientUnits="userSpaceOnUse">
      <stop offset="0" stop-color="#ff6900"/>
      <stop offset=".75" stop-color="#6b09d9"/>
      <stop offset="1" stop-color="#0032ff"/>
    </linearGradient>
    <linearGradient id="Sfumatura_senza_nome_79-2" data-name="Sfumatura senza nome 79" x1="-656.29" y1="78.05" x2="81.82" y2="25.39" xlink:href="#Sfumatura_senza_nome_79"/>
  </defs>
  <g id="Livello_1-2" data-name="Livello 1">
    <g>
      <rect class="cls-1" width="69.29" height="69.29" rx="8" ry="8"/>
      <g>
        <path class="cls-2" d="M54.54,50.62H14.75c-.55,0-1,.45-1,1s.45,1,1,1h39.79c.55,0,1-.45,1-1s-.45-1-1-1Z"/>
        <path class="cls-3" d="M16.32,41.49c.26,0,.51-.1.71-.29l14.27-14.27,6.21,6.22c.2.2.45.29.71.29s.51-.1.71-.29l13.05-13.05v6.75c0,.55.45,1,1,1s1-.45,1-1v-10.16h-10.16c-.55,0-1,.45-1,1s.45,1,1,1h6.75l-12.35,12.35-6.21-6.22c-.39-.39-1.02-.39-1.41,0l-14.98,14.98c-.39.39-.39,1.02,0,1.41.2.2.45.29.71.29Z"/>
      </g>
    </g>
  </g>
</svg>