<?xml version="1.0" encoding="UTF-8"?>
<svg id="Livello_2" data-name="Livello 2" xmlns="http://www.w3.org/2000/svg" xmlns:xlink="http://www.w3.org/1999/xlink" viewBox="0 0 69.29 69.29">
  <defs>
    <style>
      .cls-1 {
        fill: #fff;
      }

      .cls-2 {
        fill: url(#Sfumatura_senza_nome_79);
      }

      .cls-3 {
        fill: url(#Sfumatura_senza_nome_79-2);
      }
    </style>
    <linearGradient id="Sfumatura_senza_nome_79" data-name="Sfumatura senza nome 79" x1="-110.25" y1="37.74" x2="627.86" y2="-14.92" gradientUnits="userSpaceOnUse">
      <stop offset="0" stop-color="#ff6900"/>
      <stop offset=".75" stop-color="#6b09d9"/>
      <stop offset="1" stop-color="#0032ff"/>
    </linearGradient>
    <linearGradient id="Sfumatura_senza_nome_79-2" data-name="Sfumatura senza nome 79" x1="-109.28" y1="51.42" x2="628.83" y2="-1.24" xlink:href="#Sfumatura_senza_nome_79"/>
  </defs>
  <g id="Livello_1-2" data-name="Livello 1">
    <g>
      <rect class="cls-1" width="69.29" height="69.29" rx="8" ry="8"/>
      <g>
        <path class="cls-2" d="M22.17,38.77c-1-.33-1.93-.75-2.78-1.24-.38-.23-.84-.27-1.26-.12l-1.06.38c-.32.12-.65.24-.99.36.13-.37.26-.73.39-1.08l.19-.54c.18-.5.07-1.07-.28-1.47-1.57-1.83-2.39-4.1-2.39-6.57,0-6.26,6.13-10.98,14.25-10.98,6.55,0,11.92,3.07,13.68,7.83.19.52.77.78,1.29.59.52-.19.78-.77.59-1.29-2.06-5.55-8.17-9.13-15.56-9.13-9.26,0-16.25,5.58-16.25,12.98,0,2.85.93,5.48,2.69,7.64l-.09.25c-.32.9-.67,1.87-1.02,2.85-.21.57.09,1.21.67,1.42l.41.12.34-.12c.96-.34,1.9-.68,2.77-.99l.83-.3c.91.51,1.91.95,2.96,1.3.52.17,1.09-.11,1.26-.63.17-.52-.11-1.09-.63-1.26Z"/>
        <path class="cls-3" d="M41.05,27.6c-9.26,0-16.25,5.58-16.25,12.98,0,7.9,6.53,13.21,16.25,13.21,3.62,0,6.96-.8,9.66-2.32l.9.32c.85.31,1.77.64,2.69.96l.42.13.35-.13c.28-.1.5-.31.62-.58l.17-.45-.13-.38c-.36-1.01-.71-2-1.04-2.91l-.07-.2c1.76-2.16,2.69-4.79,2.69-7.64,0-7.4-6.99-12.98-16.25-12.98ZM52.91,47.14c-.35.41-.46.97-.28,1.48l.17.48c.13.37.27.75.41,1.14-.32-.11-.63-.22-.93-.33l-1.13-.41c-.41-.15-.87-.1-1.25.12-2.43,1.42-5.5,2.17-8.86,2.17-8.52,0-14.25-4.5-14.25-11.21,0-6.26,6.13-10.98,14.25-10.98s14.25,4.72,14.25,10.98c0,2.47-.83,4.74-2.39,6.56Z"/>
      </g>
    </g>
  </g>
</svg>