<?xml version="1.0" encoding="UTF-8"?>
<svg id="Livello_2" data-name="Livello 2" xmlns="http://www.w3.org/2000/svg" xmlns:xlink="http://www.w3.org/1999/xlink" viewBox="0 0 69.29 69.29">
  <defs>
    <style>
      .cls-1 {
        fill: #fff;
      }

      .cls-2 {
        fill: url(#Sfumatura_senza_nome_79-4);
      }

      .cls-3 {
        fill: url(#Sfumatura_senza_nome_79);
      }

      .cls-4 {
        fill: url(#Sfumatura_senza_nome_79-2);
      }

      .cls-5 {
        fill: url(#Sfumatura_senza_nome_79-3);
      }
    </style>
    <linearGradient id="Sfumatura_senza_nome_79" data-name="Sfumatura senza nome 79" x1="-564.38" y1="79.63" x2="173.73" y2="26.98" gradientUnits="userSpaceOnUse">
      <stop offset="0" stop-color="#ff6900"/>
      <stop offset=".75" stop-color="#6b09d9"/>
      <stop offset="1" stop-color="#0032ff"/>
    </linearGradient>
    <linearGradient id="Sfumatura_senza_nome_79-2" data-name="Sfumatura senza nome 79" x1="-565.7" y1="61.16" x2="172.41" y2="8.5" xlink:href="#Sfumatura_senza_nome_79"/>
    <linearGradient id="Sfumatura_senza_nome_79-3" data-name="Sfumatura senza nome 79" x1="-565.39" y1="65.42" x2="172.72" y2="12.76" xlink:href="#Sfumatura_senza_nome_79"/>
    <linearGradient id="Sfumatura_senza_nome_79-4" data-name="Sfumatura senza nome 79" x1="-565.89" y1="58.41" x2="172.22" y2="5.76" xlink:href="#Sfumatura_senza_nome_79"/>
  </defs>
  <g id="Livello_1-2" data-name="Livello 1">
    <g>
      <rect class="cls-1" width="69.29" height="69.29" rx="8" ry="8"/>
      <g>
        <path class="cls-3" d="M46.51,24.47c-1.12-1.95-3.61-2.62-5.56-1.49-.82.47-1.45,1.22-1.78,2.1l-3.24-5.62c-1.12-1.95-3.61-2.62-5.56-1.49-.82.48-1.45,1.22-1.78,2.11-1.2-1.9-3.71-2.46-5.61-1.26-1.64,1.04-2.32,3.09-1.62,4.9-2.25.08-4,1.96-3.92,4.21.02.67.21,1.32.54,1.89l1.02,1.77c-2.22-.37-4.32,1.12-4.69,3.34-.16.93.02,1.89.49,2.71l6.85,11.86c3.88,6.73,12.47,9.04,19.2,5.16,2.88-1.66,5.08-4.28,6.2-7.41,4.79-4.48,5.87-11.66,2.61-17.34l-3.15-5.45ZM31.1,19.26c1.24-.71,2.82-.29,3.54.95l4.48,7.76c-1.62.08-3.04,1.12-3.6,2.64l-3.24-5.62c-.42-.72-1.05-1.3-1.81-1.65l-.31-.54h0c-.71-1.24-.29-2.82.95-3.54ZM22.64,21.6c.37-1.38,1.79-2.2,3.17-1.83.66.18,1.23.61,1.57,1.21l1.15,1.99c-1.63.08-3.05,1.12-3.61,2.65-.42-.66-1.01-1.18-1.72-1.51l-.31-.54c-.35-.59-.44-1.3-.26-1.97ZM40.12,53.39c-6.02,3.47-13.71,1.41-17.2-4.61l-6.85-11.86c-.72-1.24-.29-2.82.95-3.54,1.24-.72,2.82-.29,3.54.95,0,0,0,0,0,0h0s4.44,7.69,4.44,7.69c.2.35.66.48,1.01.27s.48-.66.27-1.01c0,0,0,0,0,0l-7.03-12.18c-.72-1.24-.29-2.82.95-3.54,1.24-.72,2.82-.29,3.54.95,0,0,0,0,0,0l7.03,12.18c.2.35.66.48,1.01.27.35-.2.48-.66.27-1.01l-5.55-9.62c-.72-1.24-.29-2.82.95-3.54s2.82-.29,3.54.95c0,0,0,0,0,0l7.77,13.47c.2.35.66.47,1.01.27.35-.2.47-.66.27-1.01l-2.96-5.13h0c-.72-1.24-.29-2.82.95-3.54.6-.34,1.3-.44,1.97-.26.08.02.17.05.25.08h0c.56.21,1.03.61,1.32,1.13l3.15,5.45c3.47,6.02,1.41,13.71-4.61,17.19ZM47.78,44.18c.37-3.02-.25-6.09-1.78-8.73l-3.15-5.45c-.42-.73-1.05-1.3-1.81-1.65l-.31-.54h0c-.71-1.24-.29-2.82.95-3.54,1.24-.71,2.82-.29,3.54.95l3.15,5.45c2.43,4.24,2.2,9.5-.59,13.51Z"/>
        <path class="cls-4" d="M48.85,18.93l1.7-2.43c.23-.33.15-.8-.18-1.03s-.8-.15-1.03.18l-1.7,2.43c-.23.33-.15.8.18,1.03.33.23.8.15,1.03-.18Z"/>
        <path class="cls-5" d="M53.88,19.84l-2.43,1.7c-.33.23-.42.7-.18,1.03.23.33.7.42,1.03.18l2.43-1.7c.33-.23.42-.7.18-1.03-.23-.33-.7-.42-1.03-.18Z"/>
        <path class="cls-2" d="M43.39,17.05c.4.11.8-.13.91-.52l.77-2.86c.11-.39-.13-.8-.52-.91-.39-.11-.8.13-.91.52l-.77,2.86c-.11.39.13.8.52.91Z"/>
      </g>
    </g>
  </g>
</svg>